<svg 
    xmlns="http://www.w3.org/2000/svg" version="1.0" 
    width="1024.000000pt" height="1024.000000pt"
    viewBox="250 180 580 610"
    preserveAspectRatio="xMidYMid meet">
    
    <g transform="translate(0,1024) scale(0.1,-0.1)" fill="currentColor" stroke="none">
    <path d="M4325 8199 c-173 -27 -331 -104 -467 -228 -60 -55 -112 -129 -123 -173 -5 -19 -14 -28 -27 -28 -54 0 -183 -35 -258 -71 -214 -101 -376 -288 -451 -519 -25 -75 -32 -121 -38 -214 l-6 -119 -69 -41 c-233 -138 -403 -432 -423 -731 -6 -98 8 -208 33 -257 15 -28 14 -30 -27 -76 -175 -200 -225 -487 -129 -747 37 -98 116 -221 183 -283 l25 -24 -28 -62 c-107 -236 -66 -536 104 -753 68 -86 138 -141 247 -192 75 -35 85 -43 86 -68 18 -263 146 -484 366 -630 107 -71 285 -132 385 -133 23 0 49 -12 85 -39 180 -136 415 -201 617 -172 266 39 475 192 580 425 63 139 63 135 67 771 l4 580 62 0 62 0 5 -595 c7 -663 4 -633 79 -785 165 -332 555 -485 919 -361 89 31 195 85 259 134 45 33 63 40 118 46 117 12 272 72 385 149 69 48 164 149 214 229 60 97 93 189 114 315 l17 104 67 29 c342 144 513 594 357 938 l-29 64 48 53 c225 246 275 574 132 860 -22 45 -61 105 -87 134 l-46 53 18 56 c24 76 31 214 15 309 -44 276 -189 512 -397 647 -39 25 -76 46 -81 46 -5 0 -12 55 -14 123 -4 103 -10 137 -38 219 -42 126 -101 225 -191 322 -141 151 -303 239 -480 260 -56 7 -57 8 -73 51 -21 55 -128 171 -211 231 -179 127 -404 183 -600 149 -244 -42 -435 -212 -484 -430 -8 -34 -12 -253 -14 -670 l-2 -620 -62 -3 -62 -3 -3 633 c-4 620 -4 634 -26 699 -60 180 -217 324 -410 378 -88 24 -215 33 -297 20z m228 -204 c129 -34 219 -101 269 -203 l33 -67 0 -625 0 -625 -77 -3 -78 -3 0 191 c0 202 -7 237 -49 260 -35 18 -88 12 -118 -14 l-28 -24 -3 -205 -3 -204 -77 -5 c-94 -6 -159 -36 -221 -103 -71 -77 -94 -141 -99 -272 l-5 -113 -204 0 -205 0 -34 -34 c-22 -22 -34 -44 -34 -60 0 -35 25 -83 49 -96 12 -6 103 -10 225 -10 l206 0 0 -115 0 -115 -250 0 c-266 0 -306 -6 -329 -48 -17 -31 -13 -94 7 -120 27 -35 85 -42 326 -41 116 0 219 0 229 0 15 -1 17 -13 17 -116 l0 -115 -200 0 c-223 0 -250 -6 -269 -60 -14 -41 -4 -83 26 -112 24 -22 31 -23 234 -26 l209 -3 0 -93 c0 -117 19 -182 73 -248 75 -92 149 -131 270 -145 l57 -6 0 -203 0 -202 32 -27 c27 -23 39 -26 71 -22 22 3 49 15 61 26 20 20 21 35 26 224 l5 202 80 0 80 0 0 -565 c0 -520 -1 -570 -18 -625 -62 -201 -211 -338 -417 -381 -95 -20 -190 -13 -298 21 -87 27 -104 40 -72 50 11 3 59 32 107 64 203 133 302 314 303 548 0 77 -2 85 -29 115 -24 27 -36 33 -71 33 -35 0 -47 -6 -71 -33 -27 -30 -29 -38 -29 -116 0 -203 -105 -355 -302 -438 -135 -57 -315 -49 -462 22 -177 84 -309 269 -332 463 l-6 54 66 7 c217 22 434 156 549 338 42 66 67 129 67 169 0 43 -47 89 -92 89 -49 0 -73 -22 -119 -110 -128 -248 -457 -361 -705 -244 -121 57 -224 196 -254 341 -19 91 -8 236 23 306 14 31 27 57 29 57 2 0 29 -9 59 -19 127 -45 294 -45 414 0 110 41 217 118 241 175 27 65 -18 134 -89 134 -13 0 -54 -22 -93 -49 -99 -69 -170 -93 -274 -94 -143 -1 -239 41 -339 148 -123 132 -177 329 -140 507 14 65 70 176 109 213 l29 27 33 -20 c111 -69 374 -115 444 -79 60 31 70 125 17 167 -18 14 -40 20 -78 20 -75 0 -195 25 -247 50 -65 33 -115 87 -134 143 -22 67 -14 224 16 322 56 179 192 367 302 416 106 46 258 24 394 -57 103 -62 159 -130 184 -223 16 -63 49 -91 103 -91 35 0 50 6 72 27 24 25 27 33 23 80 -9 111 -123 269 -256 356 -89 58 -170 92 -267 112 -44 9 -81 18 -83 20 -2 2 -4 36 -3 77 1 85 29 197 73 285 79 161 260 310 401 329 l44 6 7 -48 c8 -64 53 -141 113 -194 26 -23 100 -68 164 -100 63 -32 120 -64 126 -72 6 -7 16 -30 22 -50 26 -80 107 -103 163 -47 28 28 30 34 25 81 -8 63 -52 134 -109 175 -24 16 -89 54 -145 82 -57 29 -114 66 -128 82 -58 70 -57 162 4 256 77 120 232 231 371 267 73 19 192 20 263 1z m1386 0 c208 -49 422 -250 423 -398 1 -104 -54 -167 -200 -228 -42 -17 -95 -44 -117 -59 -50 -34 -94 -112 -102 -179 -5 -46 -3 -52 25 -80 57 -58 133 -34 166 53 16 42 23 47 122 97 123 63 201 121 242 181 31 46 62 125 62 160 0 19 4 20 48 14 83 -10 188 -72 278 -161 68 -68 89 -97 127 -176 25 -52 51 -119 58 -149 13 -59 18 -194 7 -205 -3 -4 -44 -15 -91 -25 -141 -31 -257 -92 -364 -193 -95 -89 -174 -241 -159 -303 19 -75 120 -102 175 -46 16 16 31 44 35 67 16 87 83 164 194 223 180 96 337 98 457 6 84 -64 199 -260 236 -401 25 -98 27 -244 4 -300 -45 -107 -159 -166 -358 -182 -98 -9 -123 -23 -133 -78 -9 -45 11 -87 50 -108 71 -38 330 7 444 77 l33 20 31 -28 c131 -125 158 -396 58 -594 -35 -69 -136 -181 -194 -215 -143 -82 -353 -75 -482 17 -83 60 -99 68 -127 68 -41 0 -87 -49 -87 -92 0 -51 33 -94 114 -147 116 -75 193 -96 356 -95 111 0 145 4 192 21 l57 21 19 -41 c31 -67 42 -117 42 -197 0 -241 -143 -439 -355 -495 -229 -59 -510 65 -612 271 -42 87 -71 114 -120 114 -47 0 -93 -45 -93 -92 0 -44 57 -159 114 -230 116 -145 322 -257 505 -274 l71 -7 -6 -41 c-11 -78 -61 -204 -108 -274 -135 -204 -387 -303 -625 -247 -94 23 -171 68 -246 145 -91 95 -117 154 -125 290 -7 117 -16 142 -61 166 -64 33 -138 -19 -140 -99 -3 -147 12 -219 67 -336 51 -108 167 -222 288 -282 l89 -44 -51 -23 c-171 -78 -385 -63 -541 37 -107 69 -203 203 -230 321 -7 28 -11 259 -11 613 l0 567 74 0 74 0 4 -201 3 -201 33 -29 c44 -40 93 -40 133 0 l29 29 0 200 0 199 67 6 c122 12 240 94 300 210 24 45 28 67 31 165 l4 112 195 0 c155 0 202 3 228 15 61 30 74 107 26 156 l-29 29 -212 0 -211 0 3 116 3 115 245 0 c282 0 305 4 334 62 16 34 17 42 4 75 -25 67 -47 72 -335 72 l-253 0 0 115 0 115 205 0 c232 0 255 5 275 64 14 45 4 80 -32 111 -29 25 -30 25 -238 25 l-208 0 -4 118 c-5 140 -21 185 -98 266 -64 67 -130 97 -227 104 l-73 5 0 189 c0 200 -7 235 -49 258 -26 13 -77 13 -103 -1 -40 -21 -48 -67 -48 -264 l0 -185 -75 0 -76 0 3 633 3 632 28 56 c83 170 298 255 516 204z m-89 -1737 c25 -13 55 -38 67 -57 l23 -34 0 -709 c0 -796 4 -755 -73 -806 l-41 -27 -712 0 c-704 0 -713 0 -740 21 -15 11 -37 33 -48 48 -21 27 -21 38 -24 750 l-2 722 22 35 c13 19 43 44 68 57 l44 22 686 0 686 0 44 -22z"/>
    <path d="M4661 5963 c-18 -9 -42 -31 -52 -47 -18 -29 -19 -55 -17 -478 l3 -447 30 -31 c16 -16 46 -35 67 -41 25 -6 191 -9 458 -7 405 3 419 4 447 24 63 46 63 47 63 507 0 461 0 465 -61 508 l-34 24 -435 2 c-390 3 -438 1 -469 -14z"/>
    </g>
  </svg>